<?xml version="1.0" encoding="utf-8"?>
<!-- Generator: Adobe Illustrator 22.0.0, SVG Export Plug-In . SVG Version: 6.00 Build 0)  -->
<svg version="1.1" id="Capa_1" xmlns="http://www.w3.org/2000/svg" xmlns:xlink="http://www.w3.org/1999/xlink" x="0px" y="0px"
	 viewBox="0 0 511.6 511.6" style="enable-background:new 0 0 511.6 511.6;" xml:space="preserve">
<style type="text/css">
	.st0{fill:#64BDBF;}
</style>
<g>
	<g>
		<path class="st0" d="M118.8,201H27.4c-7.6,0-14.1,2.7-19.4,8c-5.3,5.3-8,11.8-8,19.4v54.8c0,7.6,2.7,14.1,8,19.4
			c5.3,5.3,11.8,8,19.4,8h91.4c7.6,0,14.1-2.7,19.4-8c5.3-5.3,8-11.8,8-19.4v-54.8c0-7.6-2.7-14.1-8-19.4S126.4,201,118.8,201z"/>
		<path class="st0" d="M118.8,54.8H27.4c-7.6,0-14.1,2.7-19.4,8c-5.3,5.3-8,11.8-8,19.4V137c0,7.6,2.7,14.1,8,19.4
			c5.3,5.3,11.8,8,19.4,8h91.4c7.6,0,14.1-2.7,19.4-8s8-11.8,8-19.4V82.2c0-7.6-2.7-14.1-8-19.4C132.9,57.5,126.4,54.8,118.8,54.8z"
			/>
		<path class="st0" d="M118.8,347.2H27.4c-7.6,0-14.1,2.7-19.4,8c-5.3,5.3-8,11.8-8,19.4v54.8c0,7.6,2.7,14.1,8,19.4
			c5.3,5.3,11.8,8,19.4,8h91.4c7.6,0,14.1-2.7,19.4-8c5.3-5.3,8-11.8,8-19.4v-54.8c0-7.6-2.7-14.1-8-19.4S126.4,347.2,118.8,347.2z"
			/>
		<path class="st0" d="M484.2,201H210.1c-7.6,0-14.1,2.7-19.4,8s-8,11.8-8,19.4v54.8c0,7.6,2.7,14.1,8,19.4c5.3,5.3,11.8,8,19.4,8
			h274.1c7.6,0,14.1-2.7,19.4-8c5.3-5.3,8-11.8,8-19.4v-54.8c0-7.6-2.7-14.1-8-19.4C498.3,203.7,491.8,201,484.2,201z"/>
		<path class="st0" d="M484.2,347.2H210.1c-7.6,0-14.1,2.7-19.4,8c-5.3,5.3-8,11.8-8,19.4v54.8c0,7.6,2.7,14.1,8,19.4
			c5.3,5.3,11.8,8,19.4,8h274.1c7.6,0,14.1-2.7,19.4-8c5.3-5.3,8-11.8,8-19.4v-54.8c0-7.6-2.7-14.1-8-19.4
			C498.3,349.8,491.8,347.2,484.2,347.2z"/>
		<path class="st0" d="M503.6,62.8c-5.3-5.3-11.8-8-19.4-8H210.1c-7.6,0-14.1,2.7-19.4,8s-8,11.8-8,19.4V137c0,7.6,2.7,14.1,8,19.4
			c5.3,5.3,11.8,8,19.4,8h274.1c7.6,0,14.1-2.7,19.4-8s8-11.8,8-19.4V82.2C511.6,74.6,509,68.1,503.6,62.8z"/>
	</g>
</g>
</svg>
