<?xml version="1.0" encoding="utf-8"?>
<!-- Generator: Adobe Illustrator 22.0.0, SVG Export Plug-In . SVG Version: 6.00 Build 0)  -->
<svg version="1.1" id="Layer_1" xmlns="http://www.w3.org/2000/svg" xmlns:xlink="http://www.w3.org/1999/xlink" x="0px" y="0px"
	 viewBox="0 0 359.3 113.4" style="enable-background:new 0 0 359.3 113.4;" xml:space="preserve">
<style type="text/css">
	.st0{fill:#EC1C26;}
	.st1{fill:#020102;}
	.st2{fill:#FDFCFC;}
</style>
<path class="st0" d="M41.1,52.8c-0.5,3.9-1.1,7.8-1.6,11.6C38.7,70.6,37.8,76.8,37,83c-0.1,0.6-0.3,0.8-0.9,0.8c-6,0-12,0-17.9,0
	c-0.9,0-1-0.5-1-1.1c-0.6-5.1-1.1-10.2-1.7-15.4c-1.1-10.1-2.3-20.2-3.4-30.3c-0.5-4.7-1-9.3-1.6-14c-0.1-0.9,0.1-1.2,1-1.2
	c4.3,0,8.7,0.1,13,0c1,0,1.2,0.3,1.3,1.2c0.6,7.7,1.1,15.5,1.7,23.2c0.4,5,0.8,10,1.2,15c0,0.5,0.1,1,0.2,1.4c0,0,0.1,0,0.1,0
	c0,0,0-0.1,0-0.1c0.5-5.2,1.1-10.3,1.6-15.5c0.8-8,1.6-16,2.3-24c0.1-1,0.3-1.4,1.4-1.4c4.7,0.1,9.4,0.1,14.1,0
	c0.9,0,1.2,0.2,1.3,1.2c0.8,11.2,1.7,22.4,2.6,33.6c0.1,1.6-0.1,3.3,0.5,4.9c0.8-1.8,0.7-3.7,0.9-5.6c1.1-10.5,2.2-21.1,3.3-31.6
	c0.3-2.4,0.3-2.4,2.7-2.4c3.9,0,7.9,0,11.8,0c0.9,0,1.1,0.2,1,1.1c-1.4,12.6-2.8,25.2-4.2,37.8c-0.8,7.3-1.7,14.5-2.4,21.8
	c-0.1,0.9-0.4,1.2-1.3,1.2c-5.8,0-11.6,0-17.4,0c-0.9,0-1.2-0.3-1.4-1.2c-1.4-9.8-2.8-19.5-4.3-29.2c0-0.2-0.1-0.4-0.1-0.7
	C41.3,52.8,41.2,52.8,41.1,52.8z"/>
<path class="st1" d="M230.4,45.1c0,1.5,0,2.9,0,4.4c0,11,0,22.1,0,33.1c0,1-0.1,1.3-1.2,1.3c-3.8-0.1-7.7-0.1-11.5,0
	c-0.9,0-1.1-0.3-1.1-1.1c0-19.9,0-39.8,0-59.7c0-0.9,0.2-1.1,1.1-1.1c6.1,0,12.1,0,18.2,0c0.7,0,1.1,0.1,1.2,0.9
	c1.2,8.5,2.4,17,3.7,25.4c0.1,0.4,0.1,0.8,0.1,1.4c0.7-0.6,0.5-1.3,0.6-1.9c1-8.1,2-16.2,2.9-24.3c0.1-1.3,0.5-1.6,1.8-1.6
	c5.9,0.1,11.8,0.1,17.7,0c1,0,1.3,0.3,1.3,1.3c0,19.8,0,39.6,0,59.4c0,1.1-0.3,1.3-1.3,1.3c-3.7-0.1-7.5-0.1-11.2,0
	c-1.1,0-1.2-0.3-1.2-1.3c0-12.5,0-25,0-37.8c-0.7,1.8-0.7,3.4-0.9,5c-1.5,11-3,22-4.5,33.1c-0.1,0.9-0.4,1-1.2,1c-2.5,0-5-0.1-7.5,0
	c-0.9,0-1.2-0.2-1.3-1.1c-1.2-8.7-2.4-17.4-3.7-26.1c-0.5-3.6-1-7.2-1.6-10.8C230.7,45.6,230.8,45.3,230.4,45.1z"/>
<path class="st0" d="M135.4,50.7c6.4,1.4,8.4,5.8,8.6,11.5c0.2,4.8,0.2,9.7-0.7,14.5c-0.5,3-2.1,4.8-5,5.7c-3.9,1.2-8,1.4-12,1.5
	c-5.9,0.1-11.9,0-17.8,0c-0.9,0-1.2-0.2-1.1-1.1c0-19.9,0-39.7,0-59.6c0-0.6-0.2-1.3,0.9-1.3c6.5,0.1,13-0.2,19.4,0.2
	c1.9,0.1,3.7,0.4,5.5,0.9c4.9,1.1,7.9,4.1,9,9c0.8,3.6,0.9,7.3,0.6,11c-0.3,3.6-2.3,5.7-5.6,6.8C136.6,50,136.1,50.1,135.4,50.7z
	 M123.2,64.6C123.2,64.6,123.2,64.6,123.2,64.6c0,2.5,0,5,0,7.5c0,0.4-0.2,0.9,0.5,1.1c1.8,0.4,3.9-0.9,4.2-2.8
	c0.5-3.7,0.6-7.4,0.2-11c-0.3-2.6-1.1-3.2-3.7-3.4c-0.9-0.1-1.2,0.2-1.2,1.1C123.2,59.6,123.2,62.1,123.2,64.6z M123.2,39.4
	C123.2,39.4,123.2,39.4,123.2,39.4c0,2,0,4,0,6c0,0.3-0.1,0.7,0.4,0.9c1.7,0.6,4.1-0.8,4.4-2.6c0.4-2.4,0.4-4.8,0.2-7.2
	c-0.1-2.8-1.1-3.7-3.9-3.8c-0.8,0-1.2,0.1-1.1,1C123.2,35.6,123.2,37.5,123.2,39.4z"/>
<path class="st1" d="M190.4,47.2c0,7.9,0,15.9,0,23.8c0,0.7,0.1,1.4,0.2,2c0.1,1,0.7,1.6,1.7,1.6c1,0,1.8-0.4,2.1-1.4
	c0.5-1.7,0.5-3.4,0.5-5.2c0-14.9,0-29.8,0-44.8c0-1.1,0.3-1.4,1.4-1.4c4.3,0.1,8.7,0.1,13,0c0.9,0,1.3,0.1,1.3,1.2
	c0,14.1,0,28.3,0,42.4c0,3.1-0.4,6.2-1.2,9.2c-1.4,5.3-4.7,8.6-10.1,9.7c-4.3,0.9-8.7,0.9-13-0.1c-5.7-1.3-8.9-5.1-10.4-10.6
	c-0.9-3.3-1.2-6.6-1.2-10c0-13.5,0-27,0-40.5c0-1,0.2-1.3,1.3-1.3c4.4,0.1,8.9,0.1,13.3,0c1.1,0,1.2,0.3,1.2,1.3
	C190.4,31.2,190.4,39.2,190.4,47.2C190.4,47.2,190.4,47.2,190.4,47.2z"/>
<path class="st0" d="M321.9,101.1c-1.3-0.5-2.6-0.9-3.9-1.4c-6.2-2.3-12.3-4.7-18.5-7c-0.9-0.3-1-0.6-0.6-1.5
	c5.5-12.5,11-25.1,16.5-37.7c3.6-8.3,7.2-16.6,10.9-24.9c0.8-1.8,0.4-1.8,2.4-1c4.6,1.7,9.2,3.5,13.8,5.1c1,0.3,1.1,0.7,0.8,1.7
	c-4.8,15.1-9.6,30.3-14.4,45.5c-2.1,6.6-4.2,13.3-6.3,19.9C322.5,100.4,322.6,101,321.9,101.1z"/>
<path class="st1" d="M271.4,52.9c0-9.8,0-19.6,0-29.4c0-1.3,0.4-1.5,1.6-1.5c6.3,0.2,12.6-0.2,18.9,0.3c1.9,0.1,3.8,0.5,5.6,1.1
	c3.8,1.1,6.1,3.6,7,7.5c0.5,2.3,0.8,4.6,0.8,6.9c0,3.9,0.2,7.7-0.2,11.6c-0.7,6-3.4,8.7-9.4,9.4c-2.4,0.3-4.7,0.3-7.1,0.2
	c-1,0-1.4,0.2-1.4,1.3c0.1,7.4,0,14.9,0.1,22.3c0,1-0.2,1.4-1.3,1.3c-4.4-0.1-8.9-0.1-13.3,0c-0.9,0-1.2-0.2-1.2-1.2
	C271.4,72.8,271.4,62.8,271.4,52.9z M287.1,40.5c0,2.3,0,4.7,0,7c0,0.6,0.1,0.9,0.8,0.9c2.6,0.1,3.9-0.9,4.1-3.5
	c0.2-2.9,0.2-5.7,0-8.6c-0.2-2.6-1.2-3.5-3.8-3.6c-0.8,0-1.1,0.1-1.1,1C287.2,35.9,287.1,38.2,287.1,40.5z"/>
<path class="st0" d="M75.6,52.9c0-9.8,0-19.6,0-29.4c0-1.3,0.4-1.5,1.6-1.5c7.8,0.1,15.6,0.1,23.4,0c1.2,0,1.4,0.3,1.4,1.4
	c-0.1,3.3-0.1,6.7,0,10c0,0.9-0.3,1.1-1.1,1.1c-2.7,0-5.5,0-8.2,0c-1,0-1.3,0.3-1.2,1.3c0,3.1,0,6.1,0,9.2c0,0.9,0.2,1.3,1.2,1.2
	c2.5-0.1,4.9,0,7.4,0c0.9,0,1.3,0.2,1.3,1.2c-0.1,3.1-0.1,6.3,0,9.4c0,1.1-0.4,1.3-1.4,1.3c-2.5-0.1-4.9,0-7.4-0.1
	c-0.9,0-1.2,0.3-1.1,1.2c0,3.7,0.1,7.4,0,11.1c0,1.1,0.4,1.3,1.4,1.3c3,0,5.9,0,8.9,0c1,0,1.4,0.2,1.3,1.3c-0.1,3.4-0.1,6.8,0,10.1
	c0,0.8-0.2,1.1-1.1,1.1c-8.4,0-16.9,0-25.3,0c-1.1,0-1-0.5-1-1.3C75.6,72.7,75.6,62.8,75.6,52.9C75.6,52.9,75.6,52.9,75.6,52.9z"/>
<path class="st1" d="M168.8,49.9c-0.1,6.9,0.2,15.3-0.2,23.6c-0.2,3.1-0.7,6.1-3.5,8c-1.8,1.2-3.9,1.8-6,2
	c-3.7,0.4-7.4,0.2-11.1,0.3c-0.6,0-0.8-0.2-0.8-0.8c0-3.1,0-6.1,0-9.2c0-0.8,0.3-0.9,1-0.9c4.5-0.3,4.9-0.7,5-5.3
	c0.1-14.7,0.1-29.3,0.1-44c0-1.8,0-1.8,1.8-1.8c4.2,0,8.5,0,12.7,0c1,0,1.2,0.3,1.2,1.2C168.8,31.6,168.8,40,168.8,49.9z"/>
<path class="st0" d="M353.5,12.6c-0.1,0.3-0.2,0.6-0.3,0.9c-1.9,5.2-3.9,10.3-5.8,15.5c-0.3,0.8-0.6,1-1.5,0.7
	c-6.1-2.3-12.3-4.6-18.4-6.9c-0.7-0.2-0.8-0.5-0.5-1.2c2-5.3,4-10.6,6-16c0.3-0.9,0.7-0.9,1.4-0.6c6.1,2.3,12.3,4.6,18.4,6.9
	C353.1,12.1,353.6,12,353.5,12.6z"/>
<path class="st2" d="M123.2,64.6c0-2.5,0-5,0-7.5c0-0.9,0.3-1.2,1.2-1.1c2.6,0.2,3.4,0.8,3.7,3.4c0.4,3.7,0.4,7.4-0.2,11
	c-0.3,1.9-2.4,3.2-4.2,2.8c-0.7-0.2-0.5-0.7-0.5-1.1C123.1,69.6,123.2,67.1,123.2,64.6C123.2,64.6,123.2,64.6,123.2,64.6z"/>
<path class="st2" d="M123.2,39.4c0-1.9,0-3.8,0-5.7c0-0.9,0.3-1.1,1.1-1c2.8,0.1,3.8,1,3.9,3.8c0.1,2.4,0.2,4.8-0.2,7.2
	c-0.3,1.8-2.6,3.2-4.4,2.6c-0.5-0.2-0.4-0.6-0.4-0.9C123.2,43.4,123.2,41.4,123.2,39.4C123.2,39.4,123.2,39.4,123.2,39.4z"/>
<path class="st2" d="M287.1,40.5c0-2.3,0-4.6,0-6.8c0-0.9,0.3-1,1.1-1c2.7,0.1,3.6,1,3.8,3.6c0.2,2.9,0.2,5.7,0,8.6
	c-0.2,2.6-1.5,3.6-4.1,3.5c-0.7,0-0.8-0.3-0.8-0.9C287.2,45.1,287.1,42.8,287.1,40.5z"/>
<g>
	<path d="M18.3,96.8c0-1.1,0-2-0.1-2.9h1.7l0.1,1.7H20c0.6-1,1.6-2,3.3-2c1.5,0,2.6,0.9,3,2.1h0c0.3-0.6,0.7-1.1,1.2-1.4
		c0.6-0.5,1.3-0.7,2.4-0.7c1.4,0,3.5,0.9,3.5,4.6v6.3h-1.9v-6c0-2-0.7-3.3-2.3-3.3c-1.1,0-2,0.8-2.3,1.8c-0.1,0.3-0.2,0.6-0.2,1v6.6
		h-1.9v-6.4c0-1.7-0.7-2.9-2.2-2.9c-1.2,0-2.1,1-2.4,1.9c-0.1,0.3-0.2,0.6-0.2,0.9v6.4h-1.9V96.8z"/>
	<path d="M47.9,99.2c0,3.9-2.7,5.7-5.3,5.7c-2.9,0-5.1-2.1-5.1-5.5c0-3.6,2.3-5.7,5.3-5.7C45.9,93.7,47.9,95.9,47.9,99.2z
		 M39.5,99.3c0,2.3,1.3,4.1,3.2,4.1c1.8,0,3.2-1.7,3.2-4.1c0-1.8-0.9-4.1-3.2-4.1S39.5,97.3,39.5,99.3z"/>
	<path d="M52,97.3c0-1.3,0-2.3-0.1-3.3h1.7l0.1,2.1h0.1c0.5-1.4,1.7-2.3,3-2.3c0.2,0,0.4,0,0.6,0.1v1.8c-0.2,0-0.4-0.1-0.7-0.1
		c-1.4,0-2.3,1-2.6,2.5c0,0.3-0.1,0.6-0.1,0.9v5.7H52V97.3z"/>
	<path d="M61.7,99.6c0,2.6,1.7,3.7,3.7,3.7c1.4,0,2.2-0.2,3-0.6l0.3,1.4c-0.7,0.3-1.8,0.7-3.5,0.7c-3.3,0-5.2-2.2-5.2-5.4
		s1.9-5.7,5-5.7c3.5,0,4.4,3.1,4.4,5c0,0.4,0,0.7-0.1,0.9H61.7z M67.4,98.2c0-1.2-0.5-3.1-2.7-3.1c-2,0-2.8,1.8-3,3.1H67.4z"/>
	<path d="M82,90.9v3.1h2.8v1.5H82v5.7c0,1.3,0.4,2.1,1.5,2.1c0.5,0,0.9-0.1,1.1-0.1l0.1,1.5c-0.4,0.2-1,0.3-1.7,0.3
		c-0.9,0-1.6-0.3-2.1-0.8c-0.6-0.6-0.7-1.5-0.7-2.8v-5.8h-1.7v-1.5h1.7v-2.6L82,90.9z"/>
	<path d="M88.6,89h1.9v6.6h0c0.3-0.6,0.8-1,1.4-1.4c0.6-0.3,1.3-0.6,2-0.6c1.4,0,3.7,0.9,3.7,4.6v6.3h-1.9v-6.1
		c0-1.7-0.6-3.2-2.5-3.2c-1.3,0-2.2,0.9-2.6,1.9c-0.1,0.3-0.1,0.6-0.1,0.9v6.4h-1.9V89z"/>
	<path d="M108.4,104.6l-0.2-1.3h-0.1c-0.6,0.8-1.7,1.6-3.3,1.6c-2.2,0-3.3-1.5-3.3-3.1c0-2.6,2.3-4,6.4-4v-0.2
		c0-0.9-0.2-2.5-2.4-2.5c-1,0-2,0.3-2.8,0.8l-0.4-1.3c0.9-0.6,2.2-0.9,3.5-0.9c3.3,0,4.1,2.2,4.1,4.4v4c0,0.9,0,1.8,0.2,2.6H108.4z
		 M108.1,99.2c-2.1,0-4.5,0.3-4.5,2.4c0,1.3,0.8,1.8,1.8,1.8c1.4,0,2.3-0.9,2.6-1.8c0.1-0.2,0.1-0.4,0.1-0.6V99.2z"/>
	<path d="M114.7,96.8c0-1.1,0-2-0.1-2.9h1.7l0.1,1.8h0c0.5-1,1.8-2,3.5-2c1.5,0,3.8,0.9,3.8,4.5v6.4h-1.9v-6.1
		c0-1.7-0.6-3.1-2.5-3.1c-1.3,0-2.3,0.9-2.6,2c-0.1,0.2-0.1,0.6-0.1,0.9v6.4h-1.9V96.8z"/>
	<path d="M132.3,107.7c0.9-0.1,1.7-0.3,2.1-0.8c0.5-0.6,0.7-1.5,0.7-4v-8.9h1.9v9.7c0,2.1-0.3,3.4-1.3,4.4c-0.9,0.9-2.3,1.2-3.3,1.2
		L132.3,107.7z M137.3,90.9c0,0.6-0.4,1.2-1.2,1.2c-0.7,0-1.2-0.6-1.2-1.2c0-0.7,0.5-1.2,1.2-1.2C136.9,89.7,137.3,90.3,137.3,90.9z
		"/>
	<path d="M150.9,101.7c0,1.1,0,2.1,0.1,2.9h-1.7l-0.1-1.7h0c-0.5,0.9-1.6,2-3.5,2c-1.7,0-3.7-0.9-3.7-4.7v-6.2h1.9v5.9
		c0,2,0.6,3.4,2.4,3.4c1.3,0,2.2-0.9,2.6-1.8c0.1-0.3,0.2-0.6,0.2-1v-6.5h1.9V101.7z"/>
	<path d="M155.5,102.6c0.6,0.4,1.6,0.8,2.6,0.8c1.4,0,2.1-0.7,2.1-1.6c0-0.9-0.6-1.4-2-2c-1.9-0.7-2.8-1.7-2.8-3
		c0-1.7,1.4-3.1,3.7-3.1c1.1,0,2,0.3,2.6,0.7l-0.5,1.4c-0.4-0.3-1.2-0.6-2.2-0.6c-1.1,0-1.8,0.7-1.8,1.5c0,0.9,0.6,1.3,2,1.8
		c1.8,0.7,2.8,1.6,2.8,3.2c0,1.9-1.5,3.2-4,3.2c-1.2,0-2.2-0.3-3-0.7L155.5,102.6z"/>
	<path d="M168.4,90.9v3.1h2.8v1.5h-2.8v5.7c0,1.3,0.4,2.1,1.5,2.1c0.5,0,0.9-0.1,1.1-0.1l0.1,1.5c-0.4,0.2-1,0.3-1.7,0.3
		c-0.9,0-1.6-0.3-2.1-0.8c-0.6-0.6-0.7-1.5-0.7-2.8v-5.8h-1.7v-1.5h1.7v-2.6L168.4,90.9z"/>
	<path d="M187.3,104.6l-0.2-1.3H187c-0.6,0.8-1.7,1.6-3.3,1.6c-2.2,0-3.3-1.5-3.3-3.1c0-2.6,2.3-4,6.4-4v-0.2c0-0.9-0.2-2.5-2.4-2.5
		c-1,0-2,0.3-2.8,0.8l-0.4-1.3c0.9-0.6,2.2-0.9,3.5-0.9c3.3,0,4.1,2.2,4.1,4.4v4c0,0.9,0,1.8,0.2,2.6H187.3z M187,99.2
		c-2.1,0-4.5,0.3-4.5,2.4c0,1.3,0.8,1.8,1.8,1.8c1.4,0,2.3-0.9,2.6-1.8c0.1-0.2,0.1-0.4,0.1-0.6V99.2z"/>
	<path d="M199.9,97.4c0-1.4,0-2.5-0.1-3.5h1.7l0.1,1.8h0c0.8-1.3,2-2.1,3.8-2.1c2.6,0,4.5,2.2,4.5,5.4c0,3.8-2.3,5.7-4.8,5.7
		c-1.4,0-2.6-0.6-3.3-1.7h0v5.8h-1.9V97.4z M201.9,100.3c0,0.3,0,0.6,0.1,0.8c0.4,1.3,1.5,2.3,2.9,2.3c2,0,3.2-1.7,3.2-4.1
		c0-2.1-1.1-4-3.2-4c-1.3,0-2.6,0.9-2.9,2.4c-0.1,0.2-0.1,0.5-0.1,0.8V100.3z"/>
	<path d="M214.1,89h1.9v15.6h-1.9V89z"/>
	<path d="M226.9,104.6l-0.2-1.3h-0.1c-0.6,0.8-1.7,1.6-3.3,1.6c-2.2,0-3.3-1.5-3.3-3.1c0-2.6,2.3-4,6.4-4v-0.2
		c0-0.9-0.2-2.5-2.4-2.5c-1,0-2,0.3-2.8,0.8l-0.4-1.3c0.9-0.6,2.2-0.9,3.5-0.9c3.3,0,4.1,2.2,4.1,4.4v4c0,0.9,0,1.8,0.2,2.6H226.9z
		 M226.6,99.2c-2.1,0-4.5,0.3-4.5,2.4c0,1.3,0.8,1.8,1.8,1.8c1.4,0,2.3-0.9,2.6-1.8c0.1-0.2,0.1-0.4,0.1-0.6V99.2z"/>
	<path d="M235.5,90.9v3.1h2.8v1.5h-2.8v5.7c0,1.3,0.4,2.1,1.5,2.1c0.5,0,0.9-0.1,1.1-0.1l0.1,1.5c-0.4,0.2-1,0.3-1.7,0.3
		c-0.9,0-1.6-0.3-2.1-0.8c-0.5-0.6-0.7-1.5-0.7-2.8v-5.8h-1.7v-1.5h1.7v-2.6L235.5,90.9z"/>
	<path d="M242.3,104.6v-9.2h-1.5v-1.5h1.5v-0.5c0-1.5,0.3-2.9,1.2-3.7c0.7-0.7,1.7-1,2.6-1c0.7,0,1.3,0.2,1.7,0.3l-0.3,1.5
		c-0.3-0.1-0.7-0.2-1.2-0.2c-1.7,0-2.1,1.5-2.1,3.1v0.6h2.6v1.5h-2.6v9.2H242.3z"/>
	<path d="M259.5,99.2c0,3.9-2.7,5.7-5.3,5.7c-2.9,0-5.1-2.1-5.1-5.5c0-3.6,2.3-5.7,5.3-5.7C257.5,93.7,259.5,95.9,259.5,99.2z
		 M251.1,99.3c0,2.3,1.3,4.1,3.2,4.1c1.8,0,3.2-1.7,3.2-4.1c0-1.8-0.9-4.1-3.2-4.1C252.1,95.2,251.1,97.3,251.1,99.3z"/>
	<path d="M263.6,97.3c0-1.3,0-2.3-0.1-3.3h1.7l0.1,2.1h0.1c0.5-1.4,1.7-2.3,3-2.3c0.2,0,0.4,0,0.6,0.1v1.8c-0.2,0-0.4-0.1-0.7-0.1
		c-1.4,0-2.3,1-2.6,2.5c0,0.3-0.1,0.6-0.1,0.9v5.7h-1.9V97.3z"/>
	<path d="M272.6,96.8c0-1.1,0-2-0.1-2.9h1.7l0.1,1.7h0.1c0.6-1,1.6-2,3.3-2c1.5,0,2.6,0.9,3,2.1h0c0.3-0.6,0.7-1.1,1.2-1.4
		c0.6-0.5,1.3-0.7,2.4-0.7c1.4,0,3.5,0.9,3.5,4.6v6.3h-1.9v-6c0-2-0.7-3.3-2.3-3.3c-1.1,0-2,0.8-2.3,1.8c-0.1,0.3-0.2,0.6-0.2,1v6.6
		h-1.9v-6.4c0-1.7-0.7-2.9-2.2-2.9c-1.2,0-2.1,1-2.4,1.9c-0.1,0.3-0.2,0.6-0.2,0.9v6.4h-1.9V96.8z"/>
</g>
</svg>
